<svg version="1.1" id="Layer_1" xmlns="http://www.w3.org/2000/svg" xmlns:xlink="http://www.w3.org/1999/xlink" viewBox="0 0 512 512" xml:space="preserve" width="64px" height="64px" fill="#000000"><g id="SVGRepo_bgCarrier" stroke-width="0"></g><g id="SVGRepo_tracerCarrier" stroke-linecap="round" stroke-linejoin="round"></g><g id="SVGRepo_iconCarrier"> <circle style="fill:#fafafa;" cx="256" cy="256" r="256"></circle> <path style="fill:#8693a2;" d="M144.017,392.409l118.506,119.505c63.326-1.603,126.169-26.565,174.497-74.893 c40.75-40.75,64.884-91.82,72.414-144.798L382.521,165.443l-1.883,1.431l-23.502-23.502l-32.466-4.31H170.955l-27.148,14.524 l57.029,57.592h-24.709l-42.234,61.923l100.847,101.848h-63.21L144.017,392.409z"></path> <g> <path style="fill:#FFFFFF;" d="M188.53,288.046c-17.651,0-32.011-14.36-32.011-32.011s14.36-32.011,32.011-32.011h66.896v-15.515 H188.53c-26.207,0-47.526,21.321-47.526,47.526c0,26.205,21.321,47.526,47.526,47.526h66.896v-15.515H188.53z"></path> <rect x="148.756" y="128.965" style="fill:#FFFFFF;" width="106.665" height="15.515"></rect> <rect x="148.756" y="367.588" style="fill:#FFFFFF;" width="106.665" height="15.515"></rect> </g> <g> <path style="fill:#CFDBE6;" d="M323.748,288.046h-68.322v15.515h68.322c17.651,0,32.011,14.362,32.011,32.013 c0,17.651-14.36,32.011-32.011,32.011h-68.322V383.1h68.322c26.207,0,47.526-21.321,47.526-47.526 C371.274,309.367,349.955,288.046,323.748,288.046z"></path> <path style="fill:#CFDBE6;" d="M323.748,224.023c26.207,0,47.526-21.321,47.526-47.526s-21.321-47.526-47.526-47.526h-68.322 v15.515h68.322c17.651,0,32.011,14.36,32.011,32.011s-14.36,32.011-32.011,32.011h-68.322v15.515H323.748z"></path> </g> <g> <circle style="fill:#FD8469;" cx="160.685" cy="136.723" r="23.862"></circle> <circle style="fill:#FD8469;" cx="160.685" cy="375.346" r="23.862"></circle> <circle style="fill:#FD8469;" cx="150.566" cy="256.034" r="23.862"></circle> <circle style="fill:#FD8469;" cx="256.138" cy="136.723" r="23.862"></circle> <circle style="fill:#FD8469;" cx="256.138" cy="216.988" r="23.862"></circle> <circle style="fill:#FD8469;" cx="256.138" cy="295.443" r="23.862"></circle> <circle style="fill:#FD8469;" cx="256.138" cy="375.708" r="23.862"></circle> </g> <g> <path style="fill:#FC6F58;" d="M256.14,112.864c-0.241,0-0.474,0.029-0.714,0.036v47.652c0.24,0.007,0.472,0.036,0.714,0.036 c13.179,0,23.862-10.683,23.862-23.862C280.002,123.547,269.317,112.864,256.14,112.864z"></path> <path style="fill:#FC6F58;" d="M256.14,193.126c-0.241,0-0.474,0.029-0.714,0.036v47.652c0.24,0.007,0.472,0.036,0.714,0.036 c13.179,0,23.862-10.683,23.862-23.862C280.002,203.809,269.317,193.126,256.14,193.126z"></path> <path style="fill:#FC6F58;" d="M256.14,271.581c-0.241,0-0.474,0.029-0.714,0.036v47.652c0.24,0.007,0.472,0.036,0.714,0.036 c13.179,0,23.862-10.683,23.862-23.862C280.002,282.264,269.317,271.581,256.14,271.581z"></path> <path style="fill:#FC6F58;" d="M256.14,351.844c-0.241,0-0.474,0.029-0.714,0.036v47.652c0.24,0.007,0.472,0.036,0.714,0.036 c13.179,0,23.862-10.683,23.862-23.862S269.317,351.844,256.14,351.844z"></path> <circle style="fill:#FC6F58;" cx="363.158" cy="179.39" r="23.862"></circle> <circle style="fill:#FC6F58;" cx="363.158" cy="339.92" r="23.862"></circle> </g> </g></svg>